<?xml version="1.0" standalone="no"?>
<!DOCTYPE svg PUBLIC "-//W3C//DTD SVG 20010904//EN"
 "http://www.w3.org/TR/2001/REC-SVG-20010904/DTD/svg10.dtd">
<svg version="1.0" xmlns="http://www.w3.org/2000/svg"
 width="370.000000pt" height="393.000000pt" viewBox="0 0 370.000000 393.000000"
 preserveAspectRatio="xMidYMid meet">

<g transform="translate(0.000000,393.000000) scale(0.100000,-0.100000)"
fill="#000000" stroke="none">
<path d="M1805 3830 c-276 -43 -508 -210 -630 -454 -60 -120 -85 -221 -92
-376 -5 -109 -4 -127 11 -139 13 -11 16 -34 16 -121 l0 -107 -38 -6 c-180 -24
-223 -275 -62 -357 22 -11 55 -20 75 -20 29 0 35 -4 35 -20 0 -50 36 -163 81
-256 39 -81 66 -119 131 -188 44 -48 79 -88 77 -90 -2 -3 -67 -27 -143 -55
-76 -28 -165 -65 -197 -82 -74 -40 -168 -137 -207 -216 -52 -102 -262 -582
-262 -597 0 -8 8 -19 17 -24 15 -9 14 -16 -16 -81 -73 -160 -75 -340 -5 -452
l23 -37 -237 -4 c-130 -3 -248 -10 -262 -16 l-25 -10 30 -8 c38 -11 3413 -12
3440 -1 l20 8 -20 12 c-13 7 -96 13 -222 15 l-202 4 32 57 c29 50 32 66 35
157 5 111 -10 186 -55 287 -24 54 -25 60 -10 69 9 5 17 15 17 21 0 22 -257
596 -290 647 -37 58 -109 127 -171 163 -24 15 -92 44 -149 66 -58 22 -118 44
-133 50 l-28 11 62 57 c133 124 225 295 254 476 6 35 8 37 41 37 63 0 128 50
158 122 19 44 20 69 6 120 -20 72 -102 137 -172 138 l-28 0 0 98 c0 93 1 100
26 123 l26 24 -5 125 c-7 155 -32 256 -92 375 -107 213 -288 363 -519 429
-100 30 -246 40 -341 26z m213 -68 c2 -7 10 -12 18 -12 9 0 12 -5 8 -12 -4 -7
-3 -8 4 -4 40 24 287 -172 356 -283 68 -109 126 -253 126 -314 0 -17 -3 -17
-95 7 -188 48 -501 68 -735 46 -74 -7 -148 -14 -165 -15 -16 -2 -70 -15 -120
-30 -49 -15 -99 -28 -110 -30 -24 -3 -75 -31 -122 -68 -20 -15 -38 -25 -40
-23 -10 10 21 165 46 237 41 115 86 184 186 284 127 127 240 188 410 221 81
16 227 13 233 -4z m232 -656 c52 -8 120 -22 150 -31 30 -8 66 -18 79 -21 31
-6 41 -13 41 -25 0 -6 -5 -7 -12 -3 -7 4 -8 3 -4 -5 4 -6 3 -17 -2 -24 -5 -7
-12 -24 -16 -39 -7 -31 -74 -98 -98 -98 -9 0 -18 -4 -20 -10 -2 -6 -40 -3 -98
7 -150 27 -576 24 -731 -5 -151 -28 -143 -26 -151 -36 -3 -5 -31 -11 -61 -14
-64 -5 -108 12 -155 61 -31 32 -31 32 -15 65 9 19 24 37 32 40 9 3 31 16 48
30 19 14 40 22 48 18 11 -4 14 -2 9 6 -5 8 -2 9 10 5 9 -4 15 -3 12 2 -12 19
272 88 321 78 12 -2 20 0 17 4 -13 22 450 18 596 -5z m25 -320 c44 -7 109 -22
145 -31 79 -21 146 -21 194 -1 l36 15 0 -57 c0 -53 -2 -59 -30 -75 -47 -28
-55 -52 -60 -188 -4 -106 -8 -130 -24 -148 -19 -21 -22 -21 -622 -21 l-603 0
-20 26 c-19 24 -21 41 -21 143 0 131 -13 167 -69 191 -30 12 -31 14 -31 76 l0
63 36 -21 c50 -30 115 -29 254 4 63 15 151 32 195 37 111 13 521 5 620 -13z
m-1075 -215 c6 -12 10 -92 10 -191 0 -185 14 -280 55 -382 13 -32 21 -58 19
-58 -11 0 -75 151 -90 212 -20 79 -33 438 -16 438 6 0 16 -9 22 -19z m-90
-132 l0 -132 -37 6 c-26 4 -49 18 -70 42 -28 29 -33 42 -33 84 0 72 51 128
118 130 22 1 22 -1 22 -130z m1686 112 c32 -20 64 -74 64 -111 0 -59 -64 -130
-116 -130 -20 0 -23 7 -29 78 -3 42 -5 101 -3 129 3 49 5 53 28 53 14 0 39 -9
56 -19z m-876 -651 c-36 -3 -75 -12 -88 -19 -13 -7 -28 -10 -35 -8 -28 11 61
36 123 35 l65 -1 -65 -7z m-401 -268 c118 -73 249 -106 406 -105 128 1 230 24
342 77 71 34 73 34 113 19 22 -9 40 -19 40 -22 0 -3 -13 -28 -28 -56 -25 -47
-31 -51 -87 -65 -55 -14 -61 -18 -80 -59 -18 -38 -22 -41 -34 -27 -25 30 -134
16 -158 -20 -13 -21 -13 -35 7 -146 12 -68 27 -129 33 -137 9 -10 27 -12 74
-7 35 4 63 5 63 4 -2 -34 -44 -156 -57 -165 -12 -10 -84 -13 -284 -13 -297 0
-289 -2 -309 68 -5 20 -10 42 -10 47 0 44 -99 314 -159 435 -39 79 -70 145
-68 146 4 4 132 53 141 53 5 1 30 -12 55 -27z m-245 -67 c6 -17 -3 -22 -91
-58 -61 -25 -62 -25 -69 -5 -7 25 -10 23 67 52 76 30 85 31 93 11z m32 -66
c11 -23 12 -29 2 -24 -7 3 -5 0 5 -8 15 -13 15 -16 2 -27 -11 -9 -15 -33 -15
-86 l0 -74 -50 0 -50 0 0 69 c0 70 -7 85 -40 86 -8 0 -14 6 -12 13 1 6 -3 12
-9 12 -5 0 -7 5 -4 10 3 6 15 10 26 10 10 0 19 4 19 8 0 11 68 35 79 27 5 -3
12 -1 16 5 9 15 13 13 31 -21z m-242 -146 c-66 -87 -69 -170 -9 -246 69 -85
89 -127 93 -193 4 -61 3 -63 -26 -78 -45 -23 -99 -92 -119 -151 l-18 -53 -158
63 c-87 34 -160 65 -163 68 -3 2 52 134 122 292 126 286 162 348 235 409 l34
29 21 -49 21 -48 -33 -43z m1713 63 c56 -59 68 -82 183 -342 67 -154 126 -286
131 -295 6 -12 -22 -27 -156 -81 l-163 -65 -22 59 c-23 64 -67 121 -110 143
-25 13 -29 23 -45 126 -19 119 -16 165 21 288 l16 54 61 -7 c109 -13 110 -13
126 16 15 26 14 28 -19 63 -19 20 -51 46 -70 57 -19 12 -37 23 -39 24 -5 4 10
24 18 24 5 0 36 -29 68 -64z m-127 -8 c30 -14 63 -32 73 -40 16 -12 10 -13
-50 -10 -94 5 -108 -7 -125 -113 l-13 -80 -98 -19 -98 -19 -37 36 c-46 45 -87
50 -104 12 -6 -14 -23 -28 -37 -31 -14 -3 -31 -7 -37 -9 -12 -4 -49 189 -39
205 11 18 68 11 92 -12 32 -30 67 -13 93 46 16 39 23 46 57 51 21 4 45 8 53
10 8 2 60 3 115 1 83 -2 110 -7 155 -28z m-1402 -186 l102 -3 0 66 c0 68 6 77
32 48 29 -33 40 -66 40 -113 0 -54 -12 -81 -57 -130 -37 -39 -55 -92 -55 -161
0 -50 -10 -59 -71 -59 -24 0 -27 4 -32 55 -7 65 -38 135 -82 185 -68 75 -74
132 -22 201 l32 44 5 -65 5 -65 103 -3z m220 -137 c-3 -13 -2 -22 3 -20 4 3
10 -14 14 -37 4 -24 16 -65 26 -93 11 -27 19 -51 19 -52 0 -1 -8 0 -17 3 -14
5 -15 4 -4 -4 8 -6 20 -8 28 -5 7 3 13 0 13 -6 0 -6 -5 -11 -12 -11 -6 0 -8
-3 -5 -6 4 -4 13 -1 22 6 12 10 15 10 15 0 0 -8 3 -10 7 -7 3 4 12 -1 20 -11
8 -9 12 -11 8 -4 -5 9 50 12 260 12 351 0 346 -2 385 168 l22 92 27 -22 c23
-19 30 -36 40 -98 6 -41 14 -86 18 -99 4 -15 2 -22 -4 -18 -14 9 -98 -76 -89
-91 2 -4 -1 -32 -7 -62 -13 -74 -16 -151 -4 -143 5 3 7 -3 4 -13 -17 -57 -18
-75 -4 -104 16 -32 13 -94 -6 -118 -7 -9 -6 -11 7 -6 22 9 20 -5 -6 -35 l-23
-26 25 22 26 22 27 -25 c15 -13 27 -22 27 -19 0 3 12 -1 28 -8 26 -14 100 -32
115 -29 4 1 7 -16 7 -38 l0 -41 -147 3 -148 3 4 139 c6 248 6 248 -313 245
-250 -2 -266 -3 -261 -8 2 -1 -8 -14 -23 -26 l-27 -24 2 -166 2 -166 -144 2
-145 1 0 37 0 37 59 12 c73 15 143 51 149 77 3 11 5 41 5 68 0 26 4 47 8 47 5
0 8 3 7 7 -1 5 1 18 6 31 5 14 2 33 -7 51 -8 17 -12 32 -9 36 3 3 11 20 17 38
9 26 8 40 -4 67 -8 19 -16 53 -18 75 -5 61 -7 74 -12 70 -2 -3 -11 4 -18 15
-8 11 -31 29 -52 39 -32 17 -37 24 -39 59 -2 22 2 43 7 47 6 3 8 12 4 20 -7
19 15 47 30 38 5 -3 7 -1 3 5 -5 9 38 72 51 72 3 0 3 -11 1 -25z m961 -87 c7
-46 14 -91 17 -100 4 -12 0 -18 -10 -18 -16 0 -19 8 -36 104 -13 78 -13 96 3
96 9 0 18 -27 26 -82z m-1034 -184 c15 -6 45 -53 45 -72 0 -6 -42 -20 -92 -32
-136 -33 -140 -42 -16 -35 102 7 107 6 118 -15 9 -17 9 -29 0 -51 -14 -32 -13
-32 -144 -54 -49 -8 -91 -17 -94 -20 -3 -3 44 -5 104 -5 78 0 116 -4 129 -14
18 -13 18 -15 1 -40 -20 -31 -37 -39 -128 -56 -38 -7 -68 -16 -68 -21 0 -5 43
-9 95 -9 99 0 110 -5 75 -40 -49 -49 -270 -71 -354 -36 -22 9 -46 14 -53 12
-18 -7 -16 -43 3 -54 14 -8 12 -12 -14 -31 -46 -33 -131 -69 -189 -81 -137
-29 -219 65 -216 245 2 72 30 179 65 248 22 44 9 45 163 -17 l108 -43 -57 -27
c-31 -14 -81 -38 -112 -52 -30 -14 -53 -28 -51 -31 3 -2 56 12 119 32 62 19
121 38 130 41 12 3 17 -2 20 -18 2 -14 11 -24 24 -26 19 -3 22 4 33 74 19 131
76 206 170 225 47 9 165 11 186 3z m1196 -17 c71 -29 129 -131 129 -226 0 -20
4 -42 9 -49 12 -20 46 -10 49 14 3 21 4 21 115 -13 194 -60 210 -55 47 17 -52
23 -99 46 -103 50 -5 4 45 27 109 51 65 24 121 45 125 47 10 5 58 -110 75
-184 21 -91 15 -204 -14 -261 -41 -78 -107 -104 -206 -78 -91 24 -235 105
-187 105 16 0 22 33 8 47 -11 11 -20 11 -58 -3 -115 -42 -369 0 -369 62 0 11
19 14 95 14 52 0 95 4 95 8 0 5 -40 16 -88 26 -79 16 -91 21 -106 48 -30 49
-12 58 123 59 127 0 125 9 -9 29 -104 16 -117 22 -125 60 -12 55 4 63 124 55
123 -7 118 2 -16 35 -51 12 -93 26 -93 32 0 16 29 66 42 72 23 10 194 -2 229
-17z m-474 -329 c39 -36 26 -73 -27 -80 -14 -2 -31 -7 -37 -11 -7 -5 -18 -5
-24 -1 -6 3 -14 2 -18 -2 -8 -12 -111 -44 -139 -44 -11 0 -24 5 -27 10 -4 6
-10 8 -15 5 -5 -3 -21 0 -37 6 -15 6 -41 13 -57 16 -16 3 -41 10 -55 15 -14 6
-30 10 -35 9 -14 -3 -36 21 -36 40 0 11 5 19 10 19 6 0 9 3 9 8 -3 20 3 23 18
11 9 -8 14 -9 10 -2 -4 6 -1 13 5 16 7 3 107 5 223 6 201 0 210 0 232 -21z
m-431 -145 c35 -9 64 -21 64 -25 0 -4 7 -4 17 -1 12 5 14 3 8 -7 -6 -10 -4
-12 7 -7 9 3 34 1 57 -4 32 -7 57 -5 116 12 41 11 80 17 87 13 6 -4 8 -3 5 3
-7 11 81 39 90 29 3 -3 8 -43 10 -90 l6 -86 -277 0 -276 0 0 29 c0 43 12 151
17 151 3 0 34 -8 69 -17z m-466 -128 l0 -45 -122 0 c-69 0 -118 4 -112 9 5 4
34 25 64 45 47 31 63 36 112 36 l58 0 0 -45z m1494 4 c36 -23 66 -43 66 -45 0
-2 -54 -4 -120 -4 l-120 0 0 45 0 45 54 0 c47 0 64 -6 120 -41z"/>
<path d="M1470 3576 c0 -2 7 -7 16 -10 8 -3 12 -2 9 4 -6 10 -25 14 -25 6z"/>
<path d="M1376 3478 c3 -5 10 -6 15 -3 13 9 11 12 -6 12 -8 0 -12 -4 -9 -9z"/>
<path d="M1306 3402 c-3 -5 1 -9 9 -9 8 0 12 4 9 9 -3 4 -7 8 -9 8 -2 0 -6 -4
-9 -8z"/>
<path d="M1529 2565 c-43 -23 -64 -65 -60 -120 1 -18 5 -16 29 11 33 39 61 54
102 54 41 0 69 -15 102 -54 l27 -31 0 35 c0 44 -17 76 -55 101 -35 23 -107 25
-145 4z"/>
<path d="M2153 2561 c-34 -21 -63 -67 -63 -100 0 -29 17 -35 30 -11 17 32 70
60 114 60 31 0 45 -7 78 -40 22 -22 43 -40 45 -40 3 0 3 19 0 42 -8 62 -51
100 -119 105 -41 3 -60 -1 -85 -16z"/>
<path d="M1225 1480 c-3 -6 1 -7 9 -4 18 7 21 14 7 14 -6 0 -13 -4 -16 -10z"/>
<path d="M1285 1450 c-3 -5 -1 -10 4 -10 6 0 11 5 11 10 0 6 -2 10 -4 10 -3 0
-8 -4 -11 -10z"/>
<path d="M1450 866 c0 -2 8 -10 18 -17 15 -13 16 -12 3 4 -13 16 -21 21 -21
13z"/>
<path d="M2075 570 c-3 -6 1 -7 9 -4 18 7 21 14 7 14 -6 0 -13 -4 -16 -10z"/>
<path d="M1368 233 c7 -3 16 -2 19 1 4 3 -2 6 -13 5 -11 0 -14 -3 -6 -6z"/>
<path d="M1835 460 c-3 -6 1 -7 9 -4 18 7 21 14 7 14 -6 0 -13 -4 -16 -10z"/>
<path d="M2102 456 c7 -8 15 -12 17 -11 5 6 -10 25 -20 25 -5 0 -4 -6 3 -14z"/>
<path d="M1840 435 c-10 -12 -10 -21 -2 -40 7 -14 15 -25 19 -26 5 0 18 -2 30
-3 12 -1 21 0 21 3 -1 3 3 14 7 25 18 41 -46 76 -75 41z"/>
</g>
</svg>
